<svg width="50" height="50" viewBox="0 0 50 50" fill="none" xmlns="http://www.w3.org/2000/svg">
<path d="M8.33268 39.5837C7.18685 39.5837 6.20629 39.176 5.39102 38.3607C4.57574 37.5455 4.1674 36.5642 4.16602 35.417V14.5837C4.16602 13.4378 4.57435 12.4573 5.39102 11.642C6.20768 10.8267 7.18824 10.4184 8.33268 10.417H41.666C42.8119 10.417 43.7931 10.8253 44.6098 11.642C45.4264 12.4587 45.8341 13.4392 45.8327 14.5837V35.417C45.8327 36.5628 45.425 37.5441 44.6098 38.3607C43.7945 39.1774 42.8132 39.585 41.666 39.5837H8.33268ZM18.7494 33.3337H31.2494C31.8396 33.3337 32.3348 33.1337 32.7348 32.7337C33.1348 32.3337 33.3341 31.8392 33.3327 31.2503C33.3313 30.6614 33.1313 30.167 32.7327 29.767C32.3341 29.367 31.8396 29.167 31.2494 29.167H18.7494C18.1591 29.167 17.6646 29.367 17.266 29.767C16.8674 30.167 16.6674 30.6614 16.666 31.2503C16.6646 31.8392 16.8646 32.3344 17.266 32.7357C17.6674 33.1371 18.1619 33.3364 18.7494 33.3337ZM12.4993 20.8337C13.0896 20.8337 13.5848 20.6337 13.9848 20.2337C14.3848 19.8337 14.5841 19.3392 14.5827 18.7503C14.5813 18.1614 14.3813 17.667 13.9827 17.267C13.5841 16.867 13.0896 16.667 12.4993 16.667C11.9091 16.667 11.4146 16.867 11.016 17.267C10.6174 17.667 10.4174 18.1614 10.416 18.7503C10.4146 19.3392 10.6146 19.8344 11.016 20.2357C11.4174 20.6371 11.9118 20.8364 12.4993 20.8337ZM18.7494 20.8337C19.3396 20.8337 19.8348 20.6337 20.2348 20.2337C20.6348 19.8337 20.8341 19.3392 20.8327 18.7503C20.8313 18.1614 20.6313 17.667 20.2327 17.267C19.8341 16.867 19.3396 16.667 18.7494 16.667C18.1591 16.667 17.6646 16.867 17.266 17.267C16.8674 17.667 16.6674 18.1614 16.666 18.7503C16.6646 19.3392 16.8646 19.8344 17.266 20.2357C17.6674 20.6371 18.1619 20.8364 18.7494 20.8337ZM24.9994 20.8337C25.5896 20.8337 26.0848 20.6337 26.4848 20.2337C26.8848 19.8337 27.0841 19.3392 27.0827 18.7503C27.0813 18.1614 26.8813 17.667 26.4827 17.267C26.0841 16.867 25.5896 16.667 24.9994 16.667C24.4091 16.667 23.9146 16.867 23.516 17.267C23.1174 17.667 22.9174 18.1614 22.916 18.7503C22.9146 19.3392 23.1146 19.8344 23.516 20.2357C23.9174 20.6371 24.4119 20.8364 24.9994 20.8337ZM31.2494 20.8337C31.8396 20.8337 32.3348 20.6337 32.7348 20.2337C33.1348 19.8337 33.3341 19.3392 33.3327 18.7503C33.3313 18.1614 33.1313 17.667 32.7327 17.267C32.3341 16.867 31.8396 16.667 31.2494 16.667C30.6591 16.667 30.1646 16.867 29.766 17.267C29.3674 17.667 29.1674 18.1614 29.166 18.7503C29.1646 19.3392 29.3646 19.8344 29.766 20.2357C30.1674 20.6371 30.6619 20.8364 31.2494 20.8337ZM37.4994 20.8337C38.0896 20.8337 38.5848 20.6337 38.9848 20.2337C39.3848 19.8337 39.5841 19.3392 39.5827 18.7503C39.5813 18.1614 39.3813 17.667 38.9827 17.267C38.5841 16.867 38.0896 16.667 37.4994 16.667C36.9091 16.667 36.4146 16.867 36.016 17.267C35.6174 17.667 35.4174 18.1614 35.416 18.7503C35.4146 19.3392 35.6146 19.8344 36.016 20.2357C36.4174 20.6371 36.9119 20.8364 37.4994 20.8337ZM12.4993 27.0837C13.0896 27.0837 13.5848 26.8837 13.9848 26.4837C14.3848 26.0837 14.5841 25.5892 14.5827 25.0003C14.5813 24.4114 14.3813 23.917 13.9827 23.517C13.5841 23.117 13.0896 22.917 12.4993 22.917C11.9091 22.917 11.4146 23.117 11.016 23.517C10.6174 23.917 10.4174 24.4114 10.416 25.0003C10.4146 25.5892 10.6146 26.0844 11.016 26.4857C11.4174 26.8871 11.9118 27.0864 12.4993 27.0837ZM18.7494 27.0837C19.3396 27.0837 19.8348 26.8837 20.2348 26.4837C20.6348 26.0837 20.8341 25.5892 20.8327 25.0003C20.8313 24.4114 20.6313 23.917 20.2327 23.517C19.8341 23.117 19.3396 22.917 18.7494 22.917C18.1591 22.917 17.6646 23.117 17.266 23.517C16.8674 23.917 16.6674 24.4114 16.666 25.0003C16.6646 25.5892 16.8646 26.0844 17.266 26.4857C17.6674 26.8871 18.1619 27.0864 18.7494 27.0837ZM24.9994 27.0837C25.5896 27.0837 26.0848 26.8837 26.4848 26.4837C26.8848 26.0837 27.0841 25.5892 27.0827 25.0003C27.0813 24.4114 26.8813 23.917 26.4827 23.517C26.0841 23.117 25.5896 22.917 24.9994 22.917C24.4091 22.917 23.9146 23.117 23.516 23.517C23.1174 23.917 22.9174 24.4114 22.916 25.0003C22.9146 25.5892 23.1146 26.0844 23.516 26.4857C23.9174 26.8871 24.4119 27.0864 24.9994 27.0837ZM31.2494 27.0837C31.8396 27.0837 32.3348 26.8837 32.7348 26.4837C33.1348 26.0837 33.3341 25.5892 33.3327 25.0003C33.3313 24.4114 33.1313 23.917 32.7327 23.517C32.3341 23.117 31.8396 22.917 31.2494 22.917C30.6591 22.917 30.1646 23.117 29.766 23.517C29.3674 23.917 29.1674 24.4114 29.166 25.0003C29.1646 25.5892 29.3646 26.0844 29.766 26.4857C30.1674 26.8871 30.6619 27.0864 31.2494 27.0837ZM37.4994 27.0837C38.0896 27.0837 38.5848 26.8837 38.9848 26.4837C39.3848 26.0837 39.5841 25.5892 39.5827 25.0003C39.5813 24.4114 39.3813 23.917 38.9827 23.517C38.5841 23.117 38.0896 22.917 37.4994 22.917C36.9091 22.917 36.4146 23.117 36.016 23.517C35.6174 23.917 35.4174 24.4114 35.416 25.0003C35.4146 25.5892 35.6146 26.0844 36.016 26.4857C36.4174 26.8871 36.9119 27.0864 37.4994 27.0837Z" fill="white"/>
</svg>
