<svg width="34" height="37" viewBox="0 0 34 37" fill="none" xmlns="http://www.w3.org/2000/svg">
<path d="M0.000235572 0.000157206V7.85243L5.0015 12.5912L5.23218 12.8097V27.365C7.90032 30.7742 11.7196 33.9462 16.9313 37C22.26 33.8741 26.1074 30.5616 28.7704 27.0926V12.8097L28.9987 12.5912L34 7.85479V0H29.3671V5.32345H24.1816V0.000235735H19.5485V5.32345H14.41V0.000235735H9.77454V5.32345H4.63546V0.000235735H0L0.000235572 0.000157206ZM4.45153 7.89423H17.0246V19.896H8.12203V11.3341L4.45153 7.89423ZM17.0689 19.989H25.8806V25.7886C23.9202 28.3894 21.0197 30.8733 17.0687 33.1767V19.9894L17.0689 19.989Z" fill="white"/>
</svg>
