<svg width="46" height="46" viewBox="0 0 46 46" fill="none" xmlns="http://www.w3.org/2000/svg">
<path d="M21.084 13.4163H24.9173V17.2497H21.084V13.4163ZM21.084 21.083H24.9173V32.583H21.084V21.083ZM23.0007 3.83301C12.4207 3.83301 3.83398 12.4197 3.83398 22.9997C3.83398 33.5797 12.4207 42.1663 23.0007 42.1663C33.5807 42.1663 42.1673 33.5797 42.1673 22.9997C42.1673 12.4197 33.5807 3.83301 23.0007 3.83301ZM23.0007 38.333C14.5482 38.333 7.66732 31.4522 7.66732 22.9997C7.66732 14.5472 14.5482 7.66634 23.0007 7.66634C31.4532 7.66634 38.334 14.5472 38.334 22.9997C38.334 31.4522 31.4532 38.333 23.0007 38.333Z" fill="white"/>
</svg>
