<svg width="27" height="33" viewBox="0 0 27 33" fill="none" xmlns="http://www.w3.org/2000/svg">
<path d="M2.45984 0.220178C1.38031 -0.401072 0 0.368928 0 1.63877L0.0109378 24.3888C0.0109378 25.1719 0.426562 25.8927 1.1025 26.2864L1.10797 26.2886L11.9142 32.4792L11.9208 32.4836C12.6755 32.9102 13.6019 32.9167 14.3598 32.4781H14.362L25.153 26.2886L25.1584 26.2853C25.4909 26.0929 25.7668 25.8163 25.9584 25.4834C26.15 25.1504 26.2506 24.7729 26.25 24.3888V1.63768C26.25 0.368928 24.8697 -0.402166 23.7902 0.219084L13.125 6.38018L2.46094 0.221271L2.45984 0.220178ZM2.19844 24.3877L2.1875 2.58924L13.125 8.90674L13.1359 30.6177C13.0874 30.6154 13.0399 30.6023 12.997 30.5794L12.9948 30.5783L2.19953 24.3942L2.19844 24.3877Z" fill="white"/>
</svg>
