<svg width="38" height="38" viewBox="0 0 38 38" fill="none" xmlns="http://www.w3.org/2000/svg">
<path d="M18.9993 3.16602C16.9201 3.16602 14.8612 3.57556 12.9402 4.37126C11.0192 5.16696 9.27375 6.33323 7.80349 7.80349C4.83417 10.7728 3.16602 14.8001 3.16602 18.9993C3.16602 25.9977 7.71018 31.9352 13.996 34.041C14.7877 34.1677 15.041 33.6768 15.041 33.2493V30.5735C10.6552 31.5235 9.72102 28.4518 9.72102 28.4518C8.99268 26.6152 7.96352 26.1243 7.96352 26.1243C6.52268 25.1427 8.07435 25.1743 8.07435 25.1743C9.65768 25.2852 10.4968 26.8052 10.4968 26.8052C11.8743 29.2118 14.2018 28.4993 15.1043 28.1193C15.2468 27.0902 15.6585 26.3935 16.1018 25.9977C12.5868 25.6018 8.89768 24.2402 8.89768 18.2077C8.89768 16.4502 9.49935 15.041 10.5285 13.9168C10.3702 13.521 9.81602 11.8743 10.6868 9.73685C10.6868 9.73685 12.0168 9.30935 15.041 11.3518C16.2918 11.0035 17.6535 10.8293 18.9993 10.8293C20.3452 10.8293 21.7068 11.0035 22.9577 11.3518C25.9818 9.30935 27.3118 9.73685 27.3118 9.73685C28.1827 11.8743 27.6285 13.521 27.4702 13.9168C28.4993 15.041 29.101 16.4502 29.101 18.2077C29.101 24.256 25.396 25.586 21.8652 25.9818C22.4352 26.4727 22.9577 27.4385 22.9577 28.911V33.2493C22.9577 33.6768 23.211 34.1835 24.0185 34.041C30.3043 31.9193 34.8327 25.9977 34.8327 18.9993C34.8327 16.9201 34.4231 14.8612 33.6274 12.9402C32.8317 11.0192 31.6655 9.27375 30.1952 7.80349C28.7249 6.33323 26.9795 5.16696 25.0585 4.37126C23.1375 3.57556 21.0786 3.16602 18.9993 3.16602Z" fill="white"/>
</svg>
