<svg width="98" height="98" viewBox="0 0 98 98" fill="none" xmlns="http://www.w3.org/2000/svg">
<path d="M81.6949 51.9468L19.5554 93.5075C19.1139 93.8022 18.6011 93.9712 18.0715 93.9966C17.5418 94.0221 17.0152 93.9029 16.5478 93.6518C16.0803 93.4007 15.6895 93.0271 15.4169 92.5708C15.1444 92.1145 15.0003 91.5926 15 91.0606V7.93937C15.0003 7.40741 15.1444 6.88549 15.4169 6.42918C15.6895 5.97288 16.0803 5.59929 16.5478 5.34821C17.0152 5.09712 17.5418 4.97794 18.0715 5.00336C18.6011 5.02878 19.1139 5.19785 19.5554 5.49255L81.6949 47.0532C82.0964 47.3218 82.4255 47.6856 82.6532 48.1124C82.8809 48.5393 83 49.0159 83 49.5C83 49.9841 82.8809 50.4607 82.6532 50.8876C82.4255 51.3144 82.0964 51.6783 81.6949 51.9468Z" fill="white"/>
</svg>
