<svg width="22" height="22" viewBox="0 0 22 22" fill="none" xmlns="http://www.w3.org/2000/svg">
<path d="M14 0.289062V21.7091L4.737 16.4991H0V5.49906H4.737L14 0.289062ZM3.999 7.49906H2V14.4991H3.999V7.49906ZM5.999 14.9141L12 18.2891V3.70906L5.999 7.08306V14.9141ZM19.979 5.98106L20.582 6.77906C21.4998 7.99464 21.9961 9.47641 21.9956 10.9996C21.995 12.5227 21.4977 14.0041 20.579 15.2191L19.976 16.0171L18.381 14.8111L18.984 14.0131C19.6405 13.1451 19.9959 12.0867 19.9963 10.9984C19.9967 9.91012 19.6419 8.85144 18.986 7.98306L18.383 7.18606L19.979 5.98106ZM17.186 8.08906L17.789 8.88706C18.248 9.4948 18.4962 10.2357 18.496 10.9972C18.4958 11.7588 18.2473 12.4995 17.788 13.1071L17.184 13.9051L15.59 12.6991L16.193 11.9021C16.39 11.6417 16.4967 11.3242 16.4969 10.9977C16.4971 10.6712 16.3907 10.3536 16.194 10.0931L15.591 9.29506L17.186 8.08906Z" fill="white"/>
</svg>
